Coordinates
version=1
nRows=19
nColumns=63
inDegrees=yes

Units are S.I. units (second, meters, Newtons, ...)
If the header above contains a line with 'inDegrees', this indicates whether rotational values are in degrees (yes) or radians (no).

endheader
time	pelvis_tilt	pelvis_list	pelvis_rotation	pelvis_tx	pelvis_ty	pelvis_tz	hip_flexion_r	hip_adduction_r	hip_rotation_r	knee_angle_r	knee_angle_r_beta	ankle_angle_r	subtalar_angle_r	mtp_angle_r	hip_flexion_l	hip_adduction_l	hip_rotation_l	knee_angle_l	knee_angle_l_beta	ankle_angle_l	subtalar_angle_l	mtp_angle_l	L5_S1_Flex_Ext	L5_S1_Lat_Bending	L5_S1_axial_rotation	L4_L5_Flex_Ext	L4_L5_Lat_Bending	L4_L5_axial_rotation	L3_L4_Flex_Ext	L3_L4_Lat_Bending	L3_L4_axial_rotation	L2_L3_Flex_Ext	L2_L3_Lat_Bending	L2_L3_axial_rotation	L1_L2_Flex_Ext	L1_L2_Lat_Bending	L1_L2_axial_rotation	L1_T12_Flex_Ext	L1_T12_Lat_Bending	L1_T12_axial_rotation	Abs_r3	Abs_r2	Abs_r1	Abs_t1	Abs_t2	neck_flexion	neck_bending	neck_rotation	arm_flex_r	arm_add_r	arm_rot_r	elbow_flex_r	pro_sup_r	wrist_flex_r	wrist_dev_r	arm_flex_l	arm_add_l	arm_rot_l	elbow_flex_l	pro_sup_l	wrist_flex_l	wrist_dev_l
2.300000	4.090886	1.438947	96.984367	0.127086	0.720424	0.735881	-0.060392	3.459073	-5.377435	10.737103	0.187398	33.271592	-3.008787	0.000000	-0.349941	-3.400943	-7.585819	9.635802	0.168176	35.746749	17.320033	0.000000	-0.078109	0.293786	-1.013085	-0.145057	0.390735	-1.076403	-0.128326	0.714311	-1.076403	-0.089271	0.714311	-0.886449	-0.072532	0.599088	-0.823132	-0.044632	0.455074	-0.759814	-0.557927	3.323365	-5.634475	0.000000	0.000000	4.914644	1.478473	-1.234720	43.609978	-19.912076	19.066775	110.872205	87.485585	-2.994352	9.126246	37.553233	-12.062152	12.130349	111.097690	70.265619	-11.880690	-1.874578
2.316667	4.067088	1.363136	96.994678	0.127183	0.720114	0.734822	-0.067031	3.452000	-5.251155	10.716356	0.187036	33.308832	-3.148542	0.000000	-0.372572	-3.365819	-7.610680	9.529451	0.166320	35.794663	17.320177	0.000000	-0.066421	0.298473	-1.058780	-0.123350	0.396969	-1.124953	-0.109123	0.725706	-1.124953	-0.075912	0.725706	-0.926432	-0.061678	0.608645	-0.860258	-0.037953	0.462334	-0.794085	-0.474438	3.376382	-5.888615	0.000000	0.000000	5.228456	1.261448	-0.619611	44.100489	-20.395318	17.974343	113.082555	87.644921	-1.757770	9.412506	38.497977	-12.805413	10.794169	111.921248	75.706255	-11.771741	-3.637532
2.333333	4.061525	1.276118	97.078250	0.127147	0.719819	0.733678	-0.045116	3.446013	-5.301847	10.745994	0.187553	33.359215	-3.154488	0.000000	-0.371135	-3.350299	-7.585077	9.436135	0.164692	35.841435	17.341764	0.000000	-0.052714	0.307536	-1.084404	-0.097896	0.409023	-1.152179	-0.086604	0.747744	-1.152179	-0.060247	0.747744	-0.948853	-0.048951	0.627128	-0.881078	-0.030121	0.476374	-0.813303	-0.376534	3.478914	-6.031129	0.000000	0.000000	5.555603	0.994072	-0.047194	44.723063	-21.029292	16.927170	115.367275	87.802922	-0.872163	10.021340	39.562591	-13.406570	9.688401	112.718541	81.470849	-11.680786	-5.099812
2.350000	4.077227	1.188790	97.203469	0.126974	0.719549	0.732559	0.019919	3.444731	-5.451734	10.859315	0.189531	33.421139	-3.096044	0.000000	-0.359947	-3.352397	-7.505501	9.345112	0.163103	35.883468	17.344908	0.000000	-0.039149	0.321312	-1.081998	-0.072704	0.427345	-1.149623	-0.064318	0.781238	-1.149623	-0.044744	0.781238	-0.946749	-0.036354	0.655219	-0.879124	-0.022370	0.497712	-0.811499	-0.279640	3.634746	-6.017751	0.000000	0.000000	5.887178	0.695196	0.440518	45.490848	-21.810198	15.967721	117.604939	87.951821	-0.222164	10.974656	40.726699	-13.826132	8.912387	113.483354	86.635987	-11.862964	-6.028381
2.366667	4.114548	1.106793	97.366199	0.126696	0.719309	0.731490	0.117179	3.452825	-5.696195	11.040486	0.192693	33.503925	-2.978105	0.000000	-0.340504	-3.375627	-7.381510	9.262157	0.161655	35.926240	17.347282	0.000000	-0.025215	0.338070	-1.050708	-0.046826	0.449633	-1.116377	-0.041425	0.821983	-1.116377	-0.028818	0.821983	-0.919370	-0.023414	0.689392	-0.853700	-0.014408	0.523670	-0.788031	-0.180106	3.824313	-5.843723	0.000000	0.000000	6.183785	0.395543	0.767066	46.411829	-22.723865	15.185438	119.700953	88.058772	0.124245	12.388590	42.004367	-14.090691	8.567333	114.208417	89.908474	-12.421486	-6.355565
2.383333	4.160324	1.039205	97.583890	0.126308	0.719104	0.730556	0.236717	3.456312	-6.055624	11.284664	0.196955	33.613941	-2.792488	0.000000	-0.311857	-3.407955	-7.199293	9.194817	0.160480	35.971281	17.350475	0.000000	-0.013169	0.355267	-1.003895	-0.024457	0.472505	-1.066639	-0.021636	0.863796	-1.066639	-0.015051	0.863796	-0.878409	-0.012229	0.724460	-0.815665	-0.007525	0.550308	-0.752922	-0.094067	4.018849	-5.583365	0.000000	0.000000	6.453579	0.125065	0.971756	47.506034	-23.670705	14.668559	121.430892	88.097246	0.214513	13.864787	43.399277	-14.211653	8.624242	114.820904	91.338402	-13.398142	-6.253268
2.400000	4.219030	0.994047	97.837761	0.125842	0.718946	0.729748	0.357595	3.461993	-6.532467	11.564356	0.201836	33.754561	-2.513261	0.000000	-0.287614	-3.455278	-6.964153	9.136973	0.159470	36.026917	17.352841	0.000000	-0.003906	0.372122	-0.944057	-0.007253	0.494923	-1.003061	-0.006417	0.904778	-1.003061	-0.004464	0.904778	-0.826050	-0.003627	0.758832	-0.767047	-0.002232	0.576417	-0.708043	-0.027898	4.209522	-5.250564	0.000000	0.000000	6.702135	-0.096261	0.991386	48.801834	-24.628705	14.494842	122.684853	88.077820	0.106304	15.274233	44.904694	-14.205912	9.089999	115.252635	91.353065	-14.645568	-5.760087
2.416667	4.280921	0.952648	98.140054	0.125281	0.718818	0.729108	0.497493	3.462173	-7.090338	11.870029	0.207171	33.908582	-2.222120	0.000000	-0.239664	-3.504667	-6.666475	9.098645	0.158801	36.078294	17.354890	0.000000	0.005850	0.387800	-0.884088	0.010863	0.515774	-0.939344	0.009610	0.942897	-0.939344	0.006686	0.942897	-0.773577	0.005432	0.790802	-0.718322	0.003342	0.600702	-0.663066	0.041784	4.386872	-4.917034	0.000000	0.000000	6.909670	-0.266615	0.934344	50.300574	-25.512668	14.730534	123.362238	88.032351	-0.268589	16.393916	46.468334	-14.111877	9.990435	115.470517	90.080568	-16.269684	-5.258367
2.433333	4.340600	0.922214	98.445511	0.124693	0.718737	0.728620	0.649883	3.450768	-7.688903	12.205702	0.213030	34.075187	-1.902154	0.000000	-0.190697	-3.551337	-6.354913	9.068539	0.158276	36.119972	17.358690	0.000000	0.015144	0.399917	-0.816240	0.028124	0.531890	-0.867255	0.024880	0.972358	-0.867255	0.017308	0.972358	-0.714210	0.014063	0.815511	-0.663195	0.008653	0.619471	-0.612180	0.108173	4.523940	-4.539680	0.000000	0.000000	7.082415	-0.375053	0.657899	51.939837	-26.341119	15.287954	123.476568	87.996785	-0.665331	17.108840	48.048642	-13.898145	11.204756	115.438738	89.110404	-17.985792	-4.406886
2.450000	4.394606	0.917170	98.756695	0.124097	0.718745	0.728303	0.777542	3.430521	-8.358366	12.524051	0.218586	34.236452	-1.506541	0.000000	-0.154295	-3.596194	-6.036360	9.047955	0.157917	36.139087	17.368596	0.000000	0.022765	0.409068	-0.750228	0.042277	0.544060	-0.797117	0.037401	0.994607	-0.797117	0.026018	0.994607	-0.656449	0.021140	0.834171	-0.609560	0.013008	0.633646	-0.562671	0.162610	4.627457	-4.172542	0.000000	0.000000	7.207096	-0.435858	0.266987	53.647320	-27.067568	16.177642	123.021699	88.003209	-1.280140	17.106281	49.587868	-13.661532	12.806439	115.135629	88.102895	-20.122544	-3.939184
2.466667	4.451040	0.939203	99.039414	0.123547	0.718842	0.728131	0.873828	3.415810	-9.034633	12.811869	0.223609	34.375278	-1.062076	0.000000	-0.139814	-3.649115	-5.746389	9.036185	0.157711	36.135290	17.376214	0.000000	0.028662	0.415275	-0.680741	0.053229	0.552316	-0.723287	0.047089	1.009700	-0.723287	0.032758	1.009700	-0.595648	0.026616	0.846829	-0.553102	0.016378	0.643261	-0.510555	0.204732	4.697674	-3.786075	0.000000	0.000000	7.295843	-0.454675	-0.332926	55.311778	-27.719448	17.232033	122.185363	88.041607	-1.855112	16.716414	50.984921	-13.362693	14.422282	114.691815	87.990733	-21.915766	-3.354806
2.483333	4.495209	0.994860	99.275489	0.123127	0.719048	0.728076	0.921960	3.403427	-9.649952	13.052298	0.227806	34.481413	-0.623572	0.000000	-0.165258	-3.698306	-5.514046	9.025453	0.157524	36.093171	17.383610	0.000000	0.032261	0.416889	-0.609980	0.059912	0.554462	-0.648103	0.053001	1.013624	-0.648103	0.036871	1.013624	-0.533732	0.029957	0.850120	-0.495608	0.018434	0.645761	-0.457485	0.230436	4.715933	-3.392524	0.000000	0.000000	7.326981	-0.411267	-1.099260	56.828016	-28.282499	18.318525	121.124028	88.122908	-2.257176	16.140249	52.181616	-13.078600	15.963270	114.207512	88.039477	-23.081948	-2.898813
2.500000	4.538986	1.089614	99.480901	0.122814	0.719357	0.728134	0.909464	3.403500	-10.262304	13.232702	0.230954	34.564062	-0.116424	0.000000	-0.228526	-3.759043	-5.321973	9.023458	0.157489	36.021118	17.385360	0.000000	0.032480	0.417397	-0.548243	0.060319	0.555137	-0.582508	0.053362	1.014858	-0.582508	0.037122	1.014858	-0.479713	0.030161	0.851155	-0.445447	0.018559	0.646547	-0.411182	0.232004	4.721673	-3.049163	0.000000	0.000000	7.301958	-0.368424	-1.918941	58.113153	-28.728762	19.330248	119.958278	88.252100	-2.408431	15.268835	53.133000	-12.875982	17.352377	113.758358	88.144293	-23.792288	-2.842612
2.516667	4.578612	1.220197	99.615375	0.122679	0.719776	0.728179	0.825728	3.424296	-10.741208	13.336998	0.232775	34.606657	0.343064	0.000000	-0.346323	-3.826098	-5.200742	9.018263	0.157398	35.918470	17.376914	0.000000	0.029957	0.415834	-0.491087	0.055633	0.553059	-0.521780	0.049217	1.011059	-0.521780	0.034238	1.011059	-0.429701	0.027818	0.847969	-0.399008	0.017118	0.644127	-0.368315	0.213981	4.703998	-2.731278	0.000000	0.000000	7.194971	-0.286217	-2.810752	59.084663	-29.086942	20.150633	118.906319	88.424011	-2.371955	14.324969	53.847626	-12.750632	18.405387	113.436380	88.321749	-23.744377	-2.853095
2.533333	4.611400	1.363156	99.667933	0.122756	0.720251	0.728157	0.692939	3.455351	-11.127764	13.369161	0.233336	34.632497	0.832978	0.000000	-0.510590	-3.890916	-5.150964	8.982251	0.156770	35.791900	17.353159	0.000000	0.025780	0.413119	-0.440762	0.047877	0.549448	-0.468310	0.042355	1.004457	-0.468310	0.029464	1.004457	-0.385667	0.023940	0.842431	-0.358119	0.014731	0.639921	-0.330572	0.184147	4.673280	-2.451388	0.000000	0.000000	7.077952	-0.144862	-3.588569	59.722186	-29.282321	20.511413	118.186487	88.653459	-1.679848	13.882749	54.392174	-12.718946	18.993849	113.238007	88.605749	-22.809623	-2.826512
2.550000	4.648164	1.509429	99.630474	0.123032	0.720760	0.728007	0.520302	3.511900	-11.356092	13.332532	0.232697	34.622127	1.250798	0.000000	-0.709852	-3.963078	-5.175781	8.926309	0.155793	35.664559	17.316713	0.000000	0.019468	0.411390	-0.397542	0.036154	0.547149	-0.422388	0.031984	1.000254	-0.422388	0.022250	1.000254	-0.347849	0.018078	0.838907	-0.323003	0.011124	0.637244	-0.298156	0.139059	4.653729	-2.211008	0.000000	0.000000	6.998612	0.058045	-4.194136	60.068763	-29.360105	20.459556	117.909195	88.961918	-0.910803	13.833767	54.839762	-12.777334	19.109290	113.152662	88.967243	-21.250361	-2.644327
2.566667	4.672824	1.622949	99.509520	0.123526	0.721261	0.727655	0.325499	3.577969	-11.399230	13.198902	0.230364	34.564763	1.556347	0.000000	-0.918962	-4.022315	-5.273876	8.834293	0.154187	35.529353	17.286615	0.000000	0.016410	0.408587	-0.361019	0.030476	0.543421	-0.383582	0.026960	0.993439	-0.383582	0.018755	0.993439	-0.315891	0.015239	0.833191	-0.293328	0.009377	0.632902	-0.270764	0.117217	4.622020	-2.007878	0.000000	0.000000	6.986113	0.284287	-4.573106	60.153643	-29.329399	19.985393	118.116618	89.281421	-0.400798	13.972148	55.255689	-12.911618	18.744725	113.136738	89.624627	-19.152096	-2.131709
2.583333	4.714364	1.713993	99.251713	0.124265	0.721753	0.727136	0.132249	3.676281	-11.224358	13.025681	0.227341	34.459777	1.739612	0.000000	-1.138289	-4.096143	-5.488256	8.733055	0.152421	35.418761	17.239083	0.000000	0.012146	0.409401	-0.312595	0.022557	0.544504	-0.332132	0.019955	0.995418	-0.332132	0.013882	0.995418	-0.273521	0.011279	0.834851	-0.253983	0.006940	0.634163	-0.234446	0.086758	4.631229	-1.738559	0.000000	0.000000	7.099476	0.503626	-4.733008	60.058842	-29.250401	19.043047	118.842483	89.268488	-0.082828	14.272165	55.717845	-13.061462	18.063221	113.229744	89.551899	-17.272059	-1.130694
2.600000	4.761814	1.767559	98.965044	0.125102	0.722231	0.726463	-0.064387	3.796663	-10.917746	12.780843	0.223068	34.283986	1.778162	0.000000	-1.343084	-4.173951	-5.710318	8.607018	0.150221	35.309272	17.184383	0.000000	0.010246	0.412646	-0.268014	0.019027	0.548820	-0.284765	0.016833	1.003308	-0.284765	0.011710	1.003308	-0.234512	0.009514	0.841468	-0.217761	0.005854	0.639189	-0.201010	0.073184	4.667938	-1.490613	0.000000	0.000000	7.334978	0.666390	-4.633132	59.836309	-29.127137	17.656546	120.113045	88.943954	-0.194711	15.047291	56.245581	-13.228300	17.134317	113.366873	88.898802	-15.700871	0.199812
